<?xml version="1.0" standalone="no"?><!DOCTYPE svg PUBLIC "-//W3C//DTD SVG 1.1//EN" "http://www.w3.org/Graphics/SVG/1.1/DTD/svg11.dtd"><svg t="1773330986470" class="icon" viewBox="0 0 1024 1024" version="1.1" xmlns="http://www.w3.org/2000/svg" p-id="8095" xmlns:xlink="http://www.w3.org/1999/xlink" width="200" height="200"><path d="M599.7568 178.8416v669.2864l-249.8048-139.264c-9.1648-5.12-19.456-7.8336-29.952-7.8336H226.7648a62.976 62.976 0 0 1-62.1568-62.976V385.9456c0-16.6912 6.4512-32.4608 18.2784-44.4416 11.776-11.9808 27.392-18.5344 43.8784-18.5344H320c10.24 0 20.4288-2.56 29.4912-7.5264l250.2656-136.6016M617.6768 102.4c-11.0592 0-23.552 4.7104-36.6592 15.0528L320 259.9424H226.7648C158.3616 259.9424 102.4 316.672 102.4 385.9456v252.1088c0 69.2736 55.9616 126.0032 124.3648 126.0032H320l261.0176 145.5616c12.9536 8.0896 25.344 11.9808 36.4032 11.9808 26.112 0 44.544-21.6576 44.544-60.5696V166.0416c0-38.144-18.3296-63.6416-44.2368-63.6416z" fill="#000000" p-id="8096"></path><path d="M320 259.9424a31.3856 31.3856 0 0 0-31.0784 31.488v441.1392c0 17.3056 13.9776 31.488 31.0784 31.488a31.3856 31.3856 0 0 0 31.0784-31.488V291.4304a31.3856 31.3856 0 0 0-31.0784-31.488zM817.3568 512c0-57.2928-16.7424-110.592-45.568-155.1872l-0.1024 0.0512a31.0272 31.0272 0 0 0-58.2656 15.36c0 6.8608 2.2528 13.568 6.3488 19.0464A221.696 221.696 0 0 1 755.2 512c0 45.056-13.312 86.8864-36.1472 121.7536a31.6416 31.6416 0 0 0 25.4464 49.5616c10.752 0 20.224-5.5296 25.8048-13.8752 29.696-45.056 47.104-99.1744 47.104-157.44z m62.0544 273.0496A442.9824 442.9824 0 0 0 972.8 512a442.9824 442.9824 0 0 0-93.2864-272.896l-0.0512-0.1024a30.8224 30.8224 0 0 0-23.2448-10.5472 31.6416 31.6416 0 0 0-25.5488 49.4592l-0.0512 0.0512A379.6992 379.6992 0 0 1 910.6432 512c0 88.576-30.0544 169.984-80.384 234.3936l0.1536 0.1024a31.6928 31.6928 0 0 0 25.8048 49.0496 30.8224 30.8224 0 0 0 22.8352-10.0864l0.3584-0.4096z" fill="#000000" p-id="8097"></path></svg>